{"glyphs":{":":{"x_min":0,"x_max":315,"ha":315,"o":"m 214 107 q 214 107 213 94 q 213 46 179 17 q 158 -2 108 -2 l 103 -2 l 83 0 q 58 0 58 15 l 57 26 l 57 43 q 58 48 58 51 q 58 87 90 129 q 105 148 145 148 l 147 148 l 150 149 l 161 149 l 173 149 q 213 149 213 131 l 215 117 l 215 109 z m 277 457 l 277 452 q 277 397 242 357 q 226 338 171 338 l 166 338 q 119 338 119 364 l 119 384 q 119 436 154 471 q 170 488 204 488 q 208 489 211 489 l 222 490 l 233 490 l 235 489 l 240 489 l 250 488 q 277 488 277 457 z"},"$":{"x_min":0,"x_max":563,"ha":563,"o":"m 387 198 l 387 212 q 387 236 374 253 q 360 270 349 270 l 348 270 q 341 270 341 242 l 341 238 l 338 220 l 336 202 l 333 187 q 333 177 321 140 q 309 104 309 101 q 309 98 312 98 l 312 98 l 319 99 q 339 99 369 141 q 387 167 387 198 z m 323 571 l 323 572 q 323 574 321 574 l 320 574 l 318 574 l 317 574 q 300 574 276 545 q 252 517 252 482 l 252 476 q 252 454 264 438 q 276 422 287 422 q 294 422 294 449 l 297 469 q 297 472 299 480 q 301 489 301 495 l 310 528 q 311 532 313 539 q 314 545 319 556 q 323 566 323 571 z m 187 -72 q 176 -72 176 -64 l 178 -55 l 181 -37 l 183 -28 q 183 -7 176 2 q 173 5 126 31 q 78 56 78 64 q 78 91 97 117 q 115 143 133 143 q 150 143 182 121 q 214 99 240 99 q 266 99 276 124 q 305 193 305 255 q 305 276 296 287 q 288 298 273 309 l 261 317 q 244 330 225 345 q 205 360 182 392 q 159 424 159 456 q 159 488 173 527 q 188 566 211 592 q 234 617 266 626 q 298 635 325 640 q 353 646 358 648 q 376 657 383 673 q 396 706 399 708 q 411 718 428 718 q 444 718 444 712 l 441 687 q 441 669 473 652 q 529 622 529 614 q 529 587 511 564 q 493 542 478 542 q 463 542 431 559 q 400 576 390 576 q 371 576 357 546 q 330 486 330 432 q 330 411 377 376 q 482 299 482 230 q 482 192 465 148 q 419 33 306 28 q 263 25 249 -7 q 229 -55 228 -55 q 215 -72 187 -72 z"},"?":{"x_min":0,"x_max":493,"ha":493,"o":"m 223 141 l 231 141 q 278 141 278 115 l 278 98 l 276 83 q 276 44 245 16 q 224 -2 189 -2 l 176 -4 l 163 -4 q 121 -4 121 24 l 121 36 q 121 82 153 119 q 172 141 223 141 z m 246 211 l 229 211 q 202 211 192 217 q 182 224 182 242 q 182 299 208 350 q 215 364 260 398 q 305 432 332 464 q 358 497 358 530 q 358 564 332 582 q 317 591 290 591 q 263 591 218 572 q 172 553 154 553 q 117 553 117 586 l 117 594 q 117 635 152 658 q 217 700 301 700 l 311 700 q 387 700 434 661 q 480 622 480 561 l 480 552 q 480 496 444 442 q 391 363 340 324 q 309 300 304 294 q 300 288 295 258 q 289 228 286 223 q 280 211 246 211 z"},"<":{"x_min":0,"x_max":593,"ha":593,"o":"m 512 35 q 493 35 428 74 q 362 113 248 166 q 133 219 108 235 q 84 251 84 293 l 84 303 q 84 333 113 349 q 130 358 268 420 q 406 482 464 518 q 522 553 542 553 q 548 553 548 517 q 548 482 539 465 q 529 448 512 438 q 495 427 354 364 q 213 300 213 294 q 213 283 344 222 q 476 161 494 148 q 524 126 524 56 q 524 35 512 35 z"},"'":{"x_min":0,"x_max":277,"ha":277,"o":"m 214 714 l 257 714 q 280 714 280 704 l 280 701 q 280 625 225 458 q 217 437 189 437 l 153 437 q 142 437 142 446 l 142 457 q 144 472 144 480 q 145 488 145 492 l 146 507 q 148 522 149 534 q 150 546 150 554 q 151 562 151 565 l 157 612 q 163 659 163 663 q 163 698 173 706 q 183 714 214 714 z"},"=":{"x_min":0,"x_max":596,"ha":596,"o":"m 561 173 q 561 146 529 146 l 82 146 q 69 146 69 159 l 69 164 l 69 169 l 70 189 q 72 204 72 209 q 72 237 108 237 l 132 237 l 138 236 l 508 237 l 544 237 q 563 237 563 223 l 563 218 l 562 188 q 561 178 561 173 z m 81 376 q 83 396 83 413 q 83 431 89 438 q 95 444 120 444 l 562 444 q 575 444 575 430 l 575 425 l 574 420 l 573 400 q 572 391 572 378 q 572 365 566 359 q 560 353 535 353 l 100 353 q 81 353 81 362 z"},"a":{"x_min":0,"x_max":543,"ha":543,"o":"m 319 384 l 303 384 q 255 384 216 328 q 177 271 177 208 l 177 184 q 177 147 194 124 q 211 101 241 101 l 244 102 q 289 102 329 159 q 368 216 368 309 l 368 340 q 368 384 319 384 z m 526 455 l 526 446 q 526 433 505 318 q 484 202 479 158 q 474 114 472 76 q 470 39 465 23 q 458 -2 394 -2 q 351 -2 339 27 q 339 28 336 39 q 334 50 333 50 q 332 50 283 20 q 234 -11 193 -11 l 184 -11 q 114 -11 75 40 q 36 91 36 167 l 36 187 q 36 244 57 302 q 100 420 191 467 q 231 488 270 488 q 308 488 339 479 q 370 470 388 470 q 438 486 471 486 q 504 486 515 475 q 526 464 526 455 z"},"L":{"x_min":0,"x_max":502,"ha":502,"o":"m 449 65 q 449 0 428 0 l 382 0 q 363 0 320 5 q 277 9 199 9 q 121 9 107 12 q 64 21 64 43 q 64 60 118 370 q 172 680 175 691 q 178 703 208 703 l 236 703 q 273 703 281 696 q 289 690 289 678 q 289 667 247 422 l 201 158 q 201 132 227 124 q 262 111 335 111 l 379 110 q 424 110 437 104 q 449 97 449 65 z"},"3":{"x_min":0,"x_max":563,"ha":563,"o":"m 262 -6 l 247 -6 q 169 -6 96 24 q 39 48 39 81 l 39 92 q 39 107 51 124 q 63 141 91 141 q 118 141 165 120 q 211 99 264 99 q 316 99 349 140 q 374 170 374 220 q 374 254 343 278 q 328 291 290 302 q 251 312 251 312 q 239 321 239 350 q 239 378 255 394 q 262 400 304 414 q 346 427 372 456 q 399 485 399 519 q 399 580 331 581 q 314 581 255 564 q 196 547 171 547 q 141 547 141 579 q 141 626 191 650 q 262 685 366 685 l 382 685 q 450 685 490 649 q 530 613 530 560 l 530 544 q 530 466 445 394 q 411 365 411 364 q 411 363 439 339 q 468 315 483 289 q 498 264 498 215 q 498 166 477 123 q 437 44 352 12 q 306 -6 262 -6 z"},";":{"x_min":0,"x_max":315,"ha":315,"o":"m 147 155 l 175 155 q 222 155 222 141 q 222 133 197 60 q 171 -13 133 -65 q 95 -117 75 -132 q 55 -148 28 -148 l 24 -148 q -4 -148 -4 -134 l -4 -131 q -4 -123 14 -102 q 32 -81 51 -52 q 70 -24 70 10 q 70 74 97 125 q 113 155 147 155 z m 189 341 l 171 341 q 129 341 129 369 l 129 383 q 131 391 131 396 q 131 439 165 473 q 183 491 228 491 l 249 491 q 288 491 288 464 l 288 449 q 287 442 287 436 q 287 398 252 359 q 238 343 203 343 q 191 341 189 341 z"},"J":{"x_min":0,"x_max":445,"ha":445,"o":"m 435 614 q 435 608 396 386 q 356 165 329 110 q 302 56 251 25 q 200 -6 136 -6 q 72 -6 34 10 q -4 27 -4 51 q -4 93 21 117 q 29 125 57 125 q 85 125 111 119 q 137 114 147 114 q 171 114 195 136 q 219 158 236 204 q 253 250 272 357 q 291 463 291 500 l 286 588 q 286 659 306 681 q 327 703 376 703 l 404 703 q 431 703 431 671 l 435 623 z"},"V":{"x_min":0,"x_max":613,"ha":613,"o":"m 682 678 q 682 661 358 61 q 332 12 284 12 l 270 12 q 219 12 208 45 q 208 49 155 402 q 146 463 125 548 q 104 633 103 661 l 103 671 q 103 689 140 689 q 178 689 199 681 q 221 674 232 641 q 243 607 270 397 q 296 187 306 187 q 312 187 408 391 q 505 595 530 631 q 555 668 580 679 q 605 689 650 690 l 663 690 q 682 690 682 678 z"},"\"":{"x_min":0,"x_max":453,"ha":453,"o":"m 189 715 l 235 715 q 259 715 259 706 l 259 703 q 259 699 256 685 q 252 672 251 662 q 249 652 248 647 q 246 642 235 581 q 223 520 204 460 q 196 438 165 438 l 132 438 q 121 438 121 446 l 121 457 q 122 469 123 479 q 124 495 126 510 q 127 526 128 532 q 128 539 129 544 q 129 550 130 556 q 130 562 130 566 l 136 609 q 141 648 141 669 q 141 691 149 703 q 158 715 189 715 z m 320 482 q 322 501 325 525 q 327 548 327 567 l 333 614 q 339 661 339 679 q 339 696 347 706 q 356 715 387 715 l 436 715 q 456 715 456 706 l 448 665 l 445 649 l 444 646 l 441 630 l 440 626 q 415 502 400 459 q 392 438 364 438 l 328 438 q 317 438 317 447 l 317 451 l 319 466 z"},"7":{"x_min":0,"x_max":562,"ha":562,"o":"m 156 682 q 164 689 225 689 l 247 689 q 252 689 312 684 q 373 679 475 679 q 577 679 577 662 l 577 653 q 577 612 553 570 q 551 566 524 527 q 497 488 454 423 l 419 369 q 340 248 276 130 q 213 12 209 7 q 195 -12 157 -12 l 146 -12 q 87 -12 87 6 q 87 39 242 287 q 291 365 352 453 q 413 541 413 555 q 413 575 297 575 l 223 576 q 176 576 159 585 q 142 593 142 631 q 142 668 156 682 z"},"S":{"x_min":0,"x_max":551,"ha":551,"o":"m 503 213 q 503 125 436 63 q 368 2 242 2 q 175 2 102 30 q 29 57 29 84 q 29 107 46 130 q 63 153 95 153 q 97 153 156 129 q 214 104 266 104 q 317 104 349 134 q 381 163 381 198 q 381 233 353 260 q 340 271 261 317 q 182 363 150 402 q 119 440 119 513 q 119 586 181 640 q 216 670 258 684 q 300 699 335 699 l 351 699 q 433 699 504 674 q 554 657 554 633 q 554 602 534 584 q 514 565 486 565 q 482 565 433 582 q 383 599 352 599 q 299 599 270 572 q 240 546 240 507 q 240 482 274 454 q 288 443 362 402 q 437 360 470 320 q 503 281 503 213 z"},"}":{"x_min":0,"x_max":387,"ha":387,"o":"m 352 296 q 352 256 338 244 q 333 239 312 231 q 290 224 273 211 q 257 198 246 168 q 235 138 222 42 q 208 -55 182 -95 q 156 -135 112 -155 q 68 -174 27 -174 l 5 -174 q -14 -174 -14 -162 q -14 -122 10 -100 q 15 -95 50 -80 q 85 -65 100 -39 q 115 -13 126 73 q 137 159 151 191 q 165 223 181 238 q 198 253 218 264 q 237 275 237 279 q 237 282 224 296 q 184 335 183 391 q 183 415 196 481 q 208 547 208 576 q 208 617 161 640 q 142 649 138 656 q 135 664 135 688 q 135 730 163 730 l 186 730 q 251 730 281 696 q 312 662 312 594 q 312 568 299 501 q 286 434 286 404 q 286 374 296 358 q 307 342 330 330 q 352 317 352 296 z"},"Z":{"x_min":0,"x_max":579,"ha":579,"o":"m 607 674 q 607 636 566 580 q 524 524 366 333 q 207 142 207 124 q 207 111 331 111 q 455 111 485 102 q 508 95 508 61 q 508 27 500 14 q 492 0 455 0 l 442 0 l 322 9 l 188 9 q 60 9 55 9 q 23 12 23 36 q 23 62 64 121 q 75 137 157 238 l 199 290 q 233 332 252 355 q 423 570 423 581 q 423 592 302 592 q 180 592 159 604 q 147 611 147 650 q 147 688 162 697 q 170 703 213 703 l 317 693 l 451 694 q 571 694 582 692 q 607 689 607 674 z"},"x":{"x_min":0,"x_max":525,"ha":525,"o":"m 105 470 q 105 489 211 489 q 237 489 262 457 q 270 447 289 409 q 308 371 309 371 q 315 371 346 416 q 377 461 393 477 q 408 493 437 493 l 459 493 l 470 492 l 481 492 q 528 492 528 487 q 528 481 449 400 q 370 319 356 302 q 343 286 343 260 q 343 257 396 150 q 450 42 450 33 q 450 12 360 12 q 322 12 305 26 q 289 41 263 93 q 237 146 236 146 q 232 146 196 94 q 161 42 143 26 q 125 10 81 10 l 47 10 q 6 10 6 18 q 6 19 107 123 q 208 226 208 244 q 208 261 156 361 q 105 461 105 470 z"},")":{"x_min":0,"x_max":350,"ha":350,"o":"m 302 415 l 302 393 q 302 228 221 56 q 176 -38 102 -131 q 70 -171 40 -171 q -8 -171 -8 -152 q -8 -138 20 -103 q 99 -1 149 135 q 199 271 199 418 q 199 526 167 635 q 150 689 150 698 q 150 708 156 713 q 173 729 198 729 q 223 729 230 717 q 247 691 274 606 q 302 521 302 415 z"},"&":{"x_min":0,"x_max":692,"ha":692,"o":"m 309 99 q 332 99 352 115 q 372 130 372 137 q 372 144 354 167 q 335 189 303 244 q 271 299 264 299 q 247 299 221 270 q 196 241 196 211 l 195 205 l 195 188 q 195 152 222 125 q 249 99 280 99 l 285 98 l 302 98 q 307 99 309 99 z m 326 512 l 328 497 q 328 476 338 464 q 349 452 350 452 l 351 452 q 374 452 411 504 q 435 538 435 567 l 435 569 q 435 609 401 609 l 394 609 q 370 609 348 584 q 326 558 326 528 z m 580 -3 q 548 -3 500 23 q 452 50 450 50 q 440 50 420 40 q 399 31 375 23 q 350 15 301 15 l 288 16 q 274 16 250 16 q 226 17 188 30 q 82 69 82 174 q 82 175 82 175 l 82 190 q 82 245 104 282 q 127 319 183 361 q 239 404 239 425 q 239 432 230 470 q 221 508 221 544 q 221 615 265 658 q 308 702 377 702 q 445 702 487 656 q 528 611 528 542 q 528 509 509 478 q 489 447 439 406 q 390 365 390 336 q 390 307 421 266 q 435 248 450 248 q 465 248 497 277 q 529 306 557 306 q 586 306 606 288 q 616 280 616 262 q 616 245 594 204 q 571 162 571 141 q 571 120 597 86 q 623 51 623 28 q 623 -3 580 -3 z"},"_":{"x_min":0,"x_max":525,"ha":525,"o":"m 0 -82 l 488 -82 q 502 -82 502 -90 l 502 -94 q 502 -126 498 -133 q 493 -141 474 -141 l -14 -141 q -29 -141 -29 -132 l -29 -128 q -29 -96 -24 -89 q -19 -82 0 -82 z"},"v":{"x_min":0,"x_max":507,"ha":507,"o":"m 538 486 l 538 480 q 538 473 506 417 l 444 318 q 431 296 365 177 q 300 59 293 49 q 267 10 219 10 l 209 10 q 170 10 161 31 q 155 44 116 268 q 114 277 90 366 q 65 454 65 471 l 65 478 q 65 490 88 490 q 167 490 181 462 q 195 434 216 296 q 237 159 245 159 q 252 159 317 292 q 382 425 400 449 q 419 473 443 482 q 466 491 502 491 q 538 491 538 486 z"},"O":{"x_min":0,"x_max":714,"ha":714,"o":"m 319 110 l 336 110 q 368 110 404 137 q 472 188 511 309 q 533 377 533 438 l 533 458 q 533 521 507 555 q 480 590 439 590 l 433 590 q 361 590 295 489 q 265 442 247 375 q 230 308 230 255 l 230 249 q 230 190 253 150 q 276 110 319 110 z m 672 471 q 672 395 639 304 q 607 213 551 141 q 495 68 425 32 q 354 -4 295 -4 q 236 -4 202 10 q 133 40 105 120 q 92 160 92 208 l 92 229 q 92 303 124 394 q 155 485 208 553 q 261 622 331 663 q 401 704 471 704 l 492 704 q 528 704 563 688 q 631 659 658 581 q 672 539 672 493 z"},"(":{"x_min":0,"x_max":350,"ha":350,"o":"m 192 10 q 203 -39 217 -86 q 232 -133 232 -142 q 232 -151 219 -161 q 207 -171 184 -171 l 175 -171 q 157 -171 149 -159 q 134 -136 114 -74 q 79 37 79 134 l 79 156 l 80 167 q 80 330 161 502 q 204 592 267 672 q 313 729 342 729 q 388 729 388 708 q 388 696 359 659 q 182 427 182 128 q 182 58 192 10 z"},"C":{"x_min":0,"x_max":611,"ha":611,"o":"m 75 261 l 75 292 q 75 364 103 442 q 130 521 180 576 q 283 692 443 693 l 458 693 q 527 693 578 677 q 630 660 630 633 q 630 600 602 572 q 588 558 573 558 q 558 558 531 567 q 503 575 479 582 q 456 588 418 588 q 380 588 339 566 q 256 524 219 413 q 200 354 200 294 q 200 209 240 163 q 281 116 350 116 q 396 116 446 136 q 495 156 510 156 q 525 156 536 144 q 547 131 547 107 q 547 59 515 42 q 453 9 348 9 q 164 9 101 146 q 75 204 75 261 z"},"W":{"x_min":0,"x_max":884,"ha":884,"o":"m 943 674 q 943 645 678 72 q 667 46 648 31 q 629 16 612 16 l 591 16 q 552 16 538 68 q 529 98 513 284 q 498 470 487 470 l 477 452 q 473 445 452 395 q 430 345 373 218 q 316 91 308 77 q 271 18 224 18 q 200 18 186 28 q 172 38 166 62 l 162 86 l 137 395 q 135 423 133 447 l 130 472 q 129 484 123 519 l 114 565 q 105 618 105 653 q 105 688 131 688 l 151 688 q 172 688 196 677 q 219 665 227 637 q 235 609 246 412 q 257 215 267 215 q 274 215 398 501 l 449 618 l 461 640 q 481 670 512 670 q 543 670 560 661 q 577 653 581 634 q 584 615 599 415 q 614 216 623 216 q 632 216 714 415 q 797 614 813 639 q 845 688 921 688 q 943 688 943 674 z"},"A":{"x_min":0,"x_max":636,"ha":636,"o":"m 388 287 l 388 295 l 387 298 l 387 307 l 387 314 q 387 318 387 322 l 386 338 q 386 342 386 346 l 385 365 q 385 369 385 373 l 384 388 q 384 392 384 396 l 383 404 q 383 404 383 475 q 383 542 379 542 q 378 542 357 488 q 336 433 325 398 q 313 362 302 340 q 291 317 277 294 q 263 271 263 270 q 263 264 305 264 l 337 262 l 340 262 l 356 261 l 359 261 q 388 261 388 287 z m 544 43 q 544 29 530 21 q 515 13 468 13 q 420 13 411 35 q 407 44 400 91 q 392 138 386 143 q 366 157 228 157 q 206 157 194 142 q 192 140 171 91 q 149 43 132 28 q 115 12 58 12 l 38 12 q 19 12 19 20 q 19 27 61 100 q 104 173 208 401 q 312 628 326 653 q 341 678 355 685 q 384 700 427 700 q 471 700 476 669 q 487 603 504 436 q 521 270 533 176 q 544 82 544 43 z"},"f":{"x_min":0,"x_max":356,"ha":356,"o":"m 354 469 q 354 429 307 391 q 261 354 246 312 q 239 292 215 159 q 190 25 170 -14 q 155 -44 110 -44 l 79 -44 q 47 -44 47 -25 q 47 -12 68 44 q 88 100 96 135 q 125 273 125 314 q 125 354 111 384 q 97 414 97 415 q 97 461 130 492 q 163 522 183 588 q 204 653 229 681 q 280 733 378 733 l 390 733 q 447 733 447 711 q 447 668 421 647 q 416 643 376 638 q 336 633 312 608 q 287 583 287 541 q 287 524 320 505 q 354 486 354 469 z"},"Q":{"x_min":0,"x_max":721,"ha":721,"o":"m 331 112 l 341 112 q 363 112 369 145 q 376 177 395 196 q 414 215 448 234 q 483 252 493 269 q 510 296 525 350 q 540 404 540 441 l 540 470 q 540 517 517 551 q 494 584 452 584 l 439 584 q 407 584 370 559 q 292 506 253 380 q 233 316 233 263 l 234 256 q 234 192 256 161 q 291 112 331 112 z m 651 439 l 651 426 q 651 277 576 146 q 529 64 529 57 q 529 33 559 5 q 589 -23 589 -42 q 589 -72 555 -72 l 548 -72 l 541 -71 l 532 -71 q 437 -71 375 -52 q 277 -22 226 17 q 119 97 119 263 l 119 276 q 119 352 144 436 q 169 521 210 582 q 251 643 306 677 q 360 711 423 711 l 435 711 q 530 711 589 641 q 617 608 634 556 q 651 503 651 439 z"},"w":{"x_min":0,"x_max":739,"ha":739,"o":"m 768 478 l 768 468 q 768 462 750 429 q 565 71 554 51 q 542 30 525 21 q 508 13 475 13 q 441 13 428 62 q 422 82 409 200 q 396 317 388 317 q 382 317 326 193 q 269 69 248 39 q 226 10 185 10 q 144 10 133 41 q 131 47 115 170 q 99 293 82 365 q 65 438 65 459 q 65 489 93 489 q 138 488 156 479 q 173 469 182 446 q 191 423 201 299 q 210 175 221 175 q 231 175 291 306 q 350 436 358 449 q 374 477 416 477 q 458 477 467 454 q 469 448 483 312 q 497 177 510 177 q 518 177 572 301 q 626 425 642 445 q 656 466 677 478 q 697 490 732 490 q 768 490 768 478 z"},"-":{"x_min":0,"x_max":358,"ha":358,"o":"m 337 324 l 337 315 q 337 284 327 258 q 317 232 311 229 q 305 227 188 227 l 118 227 l 110 227 l 86 227 l 76 226 l 72 225 l 62 225 q 53 225 53 231 l 53 234 q 53 305 77 322 q 82 325 202 325 l 314 327 l 318 327 l 331 327 q 337 327 337 324 z"},"E":{"x_min":0,"x_max":549,"ha":549,"o":"m 554 609 q 518 592 375 592 q 318 592 304 579 q 291 565 276 523 q 261 481 261 467 q 261 454 276 449 q 291 445 378 436 q 465 428 465 414 q 465 330 436 313 q 423 305 335 297 q 248 289 231 277 q 206 259 206 166 q 206 125 230 116 q 243 110 331 110 q 418 110 455 94 q 478 84 478 52 q 478 20 440 12 q 426 9 291 9 l 207 9 q 122 9 93 20 q 63 31 63 59 q 63 86 98 204 q 133 322 153 425 q 155 437 164 545 q 173 653 178 661 q 199 693 463 693 l 530 694 q 553 694 560 690 q 575 684 575 651 q 575 619 554 609 z"},"s":{"x_min":0,"x_max":455,"ha":455,"o":"m 21 62 q 21 78 41 97 q 61 117 81 117 q 101 117 136 102 q 172 87 208 87 q 244 87 266 104 q 288 121 288 147 q 288 173 215 210 q 142 246 121 270 q 89 305 89 364 q 89 388 103 416 q 117 443 148 465 q 198 500 271 500 q 344 500 391 486 q 439 471 439 456 l 439 448 q 439 436 418 414 q 397 392 371 392 q 361 392 331 404 q 302 415 272 415 q 242 415 221 401 q 200 387 200 366 q 200 346 223 330 q 229 325 285 296 q 340 268 362 247 q 399 209 399 150 q 399 90 348 45 q 297 0 223 0 l 199 0 l 187 0 q 124 0 62 23 q 21 38 21 62 z"},">":{"x_min":0,"x_max":593,"ha":593,"o":"m 91 33 l 85 33 q 80 33 80 54 l 80 63 q 80 122 115 146 q 141 165 278 223 q 416 281 416 292 q 416 302 280 365 q 145 427 131 437 q 102 458 102 521 q 102 550 117 550 q 132 550 186 518 q 240 486 381 417 q 522 348 524 347 q 544 334 544 298 l 544 289 q 544 253 521 239 q 511 233 363 165 q 215 97 161 65 q 106 33 91 33 z"},"l":{"x_min":0,"x_max":291,"ha":291,"o":"m 219 734 l 257 734 q 290 734 290 716 q 290 693 244 453 q 199 213 199 126 q 199 40 184 14 q 175 -1 128 -1 l 105 -1 q 67 -1 67 21 l 67 28 l 67 36 l 67 43 l 68 77 q 68 120 97 272 q 126 425 130 453 q 135 480 141 511 q 147 542 155 610 q 163 678 167 699 q 171 720 182 727 q 192 734 219 734 z"},"8":{"x_min":0,"x_max":570,"ha":570,"o":"m 191 169 l 191 153 q 191 131 207 113 q 222 96 249 96 l 252 96 l 255 96 q 301 96 333 131 q 376 180 376 224 l 376 236 q 376 260 358 281 q 339 303 312 303 l 302 303 q 267 303 229 257 q 191 210 191 169 z m 318 427 l 329 427 q 360 427 391 466 q 422 506 422 535 l 422 548 q 422 568 407 581 q 392 594 361 594 q 329 594 296 564 q 263 535 263 501 l 262 496 l 262 480 q 262 458 280 442 q 298 427 318 427 z m 534 568 q 533 484 455 406 q 422 373 422 370 q 422 368 442 351 q 463 333 480 306 q 497 279 497 238 q 497 197 475 150 q 453 102 416 65 q 379 29 332 8 q 284 -14 236 -14 l 225 -14 q 155 -14 113 27 q 71 67 71 128 l 71 139 q 71 196 106 253 q 125 283 146 302 q 167 322 189 338 q 210 354 210 360 q 210 364 196 379 q 147 428 147 472 q 147 516 168 558 q 188 600 224 634 q 259 668 302 685 q 346 703 398 703 q 450 703 486 674 q 534 637 534 579 z"},"\\":{"x_min":0,"x_max":414,"ha":414,"o":"m 139 727 q 176 727 185 707 q 199 673 241 522 q 246 507 262 418 q 278 330 289 291 q 301 252 314 183 q 328 113 349 46 q 370 -21 370 -54 q 370 -69 312 -69 q 283 -69 272 -24 q 97 677 97 720 q 97 728 108 728 l 116 728 q 131 727 139 727 z"},"e":{"x_min":0,"x_max":526,"ha":526,"o":"m 318 403 l 307 403 q 270 403 241 378 q 195 339 195 314 l 195 312 q 195 307 206 307 l 208 307 l 358 320 q 361 321 363 321 q 381 321 381 344 l 381 353 q 381 373 364 388 q 346 403 318 403 z m 51 200 q 51 248 78 307 q 105 365 144 405 q 184 444 244 472 q 304 500 362 500 q 420 500 456 465 q 492 431 492 369 l 492 358 q 492 315 475 278 q 468 264 456 258 q 444 252 322 233 l 257 224 q 190 215 185 213 q 164 207 164 187 q 164 141 190 117 q 216 93 256 93 q 295 93 340 109 q 384 125 426 125 q 450 125 450 89 q 450 53 410 32 q 351 0 269 0 l 257 0 q 159 0 105 52 q 51 104 51 200 z"},"b":{"x_min":0,"x_max":563,"ha":563,"o":"m 390 308 l 390 321 q 390 354 377 375 q 363 396 342 396 l 332 396 q 314 396 288 376 q 262 357 246 322 q 208 241 208 163 l 208 143 q 208 119 221 106 q 233 94 256 94 l 260 94 q 279 94 304 110 q 328 126 347 157 q 390 229 390 308 z m 503 323 l 503 311 q 503 194 438 93 q 408 45 370 21 q 333 -4 296 -4 l 275 -4 q 251 -4 216 8 q 181 21 174 21 q 168 21 158 14 q 148 8 140 4 q 132 0 112 0 q 68 0 68 35 q 68 39 102 201 q 136 363 149 516 q 163 670 165 679 q 170 711 213 711 l 244 711 q 285 711 285 686 q 285 676 274 622 q 264 567 255 530 q 245 492 245 489 q 245 486 251 486 q 256 486 290 498 q 323 509 353 509 q 422 509 463 458 q 503 407 503 323 z"},"%":{"x_min":0,"x_max":808,"ha":808,"o":"m 685 197 l 685 210 q 685 236 675 248 q 665 260 655 260 l 646 260 q 620 260 597 214 q 574 169 574 125 l 574 114 q 574 86 584 74 q 595 62 606 62 l 611 62 q 640 62 662 107 q 685 152 685 197 z m 321 552 l 321 573 q 319 580 319 585 q 319 619 289 619 l 286 619 q 263 619 238 582 q 213 544 213 505 q 212 499 212 497 l 211 486 l 211 470 q 211 446 221 434 q 231 422 241 422 l 248 422 q 276 422 298 467 q 321 512 321 552 z m 776 235 l 776 218 q 776 177 758 129 q 740 81 711 48 q 682 15 649 0 q 617 -16 588 -16 l 573 -16 q 531 -16 507 16 q 482 47 482 93 l 482 104 q 482 139 498 187 q 515 235 544 269 q 605 338 670 338 l 681 338 q 725 338 751 308 q 776 277 776 235 z m 747 686 q 747 681 730 658 q 550 424 424 255 q 297 86 242 18 q 218 -13 183 -13 q 147 -13 147 -6 q 147 1 176 39 q 205 76 220 95 q 234 115 246 130 l 258 145 q 264 153 275 168 l 305 207 q 332 242 360 279 q 387 316 427 367 q 467 417 558 539 q 648 660 658 671 q 679 694 713 694 q 747 694 747 686 z m 413 588 l 413 577 q 413 540 396 493 q 361 399 292 363 q 256 344 225 344 l 209 344 q 173 344 146 373 q 119 402 119 448 l 119 464 q 119 503 137 551 q 154 599 183 631 q 241 697 307 697 l 322 697 q 363 697 388 666 q 413 634 413 588 z"},"m":{"x_min":0,"x_max":808,"ha":808,"o":"m 766 352 q 766 320 741 184 q 716 47 710 34 q 698 3 662 3 l 647 3 q 609 3 609 41 q 609 63 631 196 q 652 325 652 332 q 652 368 638 382 q 624 396 603 396 q 582 396 559 379 q 536 362 519 324 q 501 286 472 171 q 442 57 438 52 q 429 42 349 42 q 309 42 309 58 q 309 100 325 190 q 340 281 340 349 q 340 367 331 380 q 322 393 302 393 q 281 393 257 375 q 232 358 218 326 q 202 294 181 184 q 159 73 145 39 q 132 4 89 4 q 46 4 46 30 l 46 46 q 46 61 73 207 q 100 354 124 431 q 133 458 145 468 q 156 479 192 479 q 228 479 238 462 l 241 448 l 242 434 q 243 423 252 423 q 254 423 275 436 q 295 448 303 451 q 341 469 383 469 q 425 469 445 457 q 465 445 478 430 l 495 410 q 503 410 527 431 q 551 451 560 457 q 606 487 648 487 l 666 487 q 709 487 737 453 q 766 418 766 352 z"},"#":{"x_min":0,"x_max":591,"ha":591,"o":"m 261 273 q 324 286 331 286 q 337 286 351 304 q 364 323 364 344 q 364 366 375 385 q 387 403 387 410 l 387 413 q 387 418 367 418 l 354 420 l 349 420 q 308 420 298 403 q 295 399 285 364 q 274 329 265 304 q 255 280 255 275 l 255 273 l 256 273 z m 441 309 q 441 293 475 288 q 509 282 513 278 q 517 273 517 255 q 517 217 492 202 q 488 199 450 193 q 413 187 400 166 q 394 156 376 94 q 358 31 351 22 q 338 4 293 4 q 270 4 270 20 q 270 24 279 46 q 288 68 301 107 q 314 147 314 161 q 314 181 253 181 q 235 181 230 173 q 226 166 220 142 l 216 126 q 196 35 181 17 q 165 -1 122 -1 q 102 -1 102 7 q 102 18 121 69 q 141 120 141 143 q 141 166 112 179 q 83 193 83 215 l 83 229 q 83 250 106 264 q 115 270 146 278 q 178 287 188 297 q 209 322 209 358 q 209 394 199 400 l 186 404 l 158 411 q 138 419 138 438 q 138 474 161 492 q 170 499 208 505 q 247 510 255 526 q 260 535 281 605 q 302 676 314 686 q 326 696 371 696 q 383 696 383 684 q 383 682 362 616 q 342 551 342 540 q 342 512 412 512 q 424 512 442 583 q 459 654 471 670 q 483 687 518 687 q 552 687 552 672 q 552 668 543 646 q 534 624 524 595 q 514 566 514 534 q 514 520 539 511 q 573 498 573 479 q 573 445 547 428 q 536 421 505 415 q 474 409 463 396 q 441 371 441 309 z"},",":{"x_min":0,"x_max":302,"ha":302,"o":"m 152 154 l 168 154 q 219 154 219 140 q 219 137 194 62 q 169 -12 130 -65 q 91 -118 72 -134 q 52 -149 24 -149 l 21 -149 q -8 -149 -8 -132 q -8 -127 14 -100 q 36 -72 42 -62 q 67 -24 67 9 q 67 82 96 129 q 111 154 152 154 z"},"n":{"x_min":0,"x_max":559,"ha":559,"o":"m 387 343 q 387 405 332 405 q 309 405 281 387 q 253 369 234 331 q 214 293 184 171 q 153 49 151 46 q 136 19 55 19 q 35 19 35 31 q 35 90 63 189 q 92 289 97 319 q 117 440 122 455 q 127 469 143 475 q 159 482 212 482 q 240 482 240 446 q 240 434 243 434 q 246 434 266 449 q 326 498 382 498 l 395 498 q 447 498 480 462 q 513 426 513 366 q 513 360 503 287 q 493 215 488 151 q 482 88 471 33 q 467 13 444 13 q 394 13 375 21 q 356 29 356 62 q 356 68 364 124 l 375 203 q 387 293 387 343 z"},"h":{"x_min":0,"x_max":560,"ha":560,"o":"m 487 378 l 487 362 q 487 328 474 258 q 461 188 456 156 l 453 141 q 442 84 438 63 l 437 48 q 434 23 433 22 q 426 0 398 0 l 386 0 q 350 0 339 9 q 327 18 327 45 q 327 73 352 204 q 376 336 376 354 q 376 398 335 398 q 319 398 295 381 q 272 364 254 331 q 236 297 213 177 q 189 58 176 29 q 163 0 121 0 q 99 0 86 12 q 74 23 74 37 q 74 50 107 225 q 140 400 152 538 q 164 676 170 692 q 175 708 195 712 q 215 717 253 717 q 291 717 291 710 q 291 703 281 645 q 271 587 259 542 q 247 498 247 493 q 247 489 253 489 q 259 489 307 499 q 355 509 372 509 q 422 509 455 474 q 487 439 487 378 z"},"z":{"x_min":0,"x_max":481,"ha":481,"o":"m 20 21 l 20 30 q 20 55 49 94 q 57 104 103 155 q 300 376 300 388 q 300 399 216 399 q 133 399 114 413 q 105 419 105 451 q 105 482 115 491 q 124 500 144 500 l 185 500 q 193 500 207 499 l 229 496 q 269 493 274 493 l 375 493 q 479 493 479 477 q 479 444 446 403 q 435 389 391 340 q 199 126 199 109 q 199 102 284 102 q 370 102 395 91 q 411 84 411 50 q 411 16 401 8 q 391 0 350 0 l 340 0 q 336 0 297 3 l 252 7 q 240 7 130 7 q 20 7 20 21 z"},"B":{"x_min":0,"x_max":613,"ha":613,"o":"m 251 117 q 334 117 379 151 q 424 184 424 237 l 424 241 q 424 296 336 296 l 329 296 l 325 295 l 317 295 l 306 295 l 294 295 q 286 294 283 294 l 269 292 q 243 292 235 278 q 235 277 225 241 l 219 221 q 217 213 207 177 q 196 140 196 123 l 196 121 q 196 114 210 114 l 213 114 l 217 115 l 229 115 q 245 117 251 117 z m 274 420 q 315 427 335 427 q 373 427 409 455 q 445 483 445 523 l 445 538 q 445 555 429 566 q 413 578 377 578 l 361 578 l 357 578 l 351 578 l 328 576 q 319 575 312 575 q 291 575 284 554 q 252 468 252 433 l 251 428 l 251 425 q 251 420 264 420 z m 504 138 q 428 -5 205 -5 q 204 -5 203 -5 l 125 -5 q 81 -5 69 -1 q 58 3 58 20 q 58 22 69 63 q 145 331 161 478 q 176 625 186 646 q 196 667 235 675 q 325 692 410 692 l 442 692 q 494 692 531 661 q 568 631 568 580 l 568 569 q 568 519 540 475 q 524 451 490 424 q 456 396 456 393 q 456 389 481 365 q 506 342 519 314 q 531 286 531 237 q 531 188 504 138 z"},"K":{"x_min":0,"x_max":628,"ha":628,"o":"m 502 0 l 472 0 q 423 0 408 20 q 393 40 342 171 q 290 302 279 302 q 256 302 238 235 q 230 206 219 123 q 208 40 204 30 q 193 0 139 0 l 124 0 q 91 0 91 32 q 91 154 131 372 q 170 589 196 662 q 205 685 227 692 q 250 700 290 700 q 331 700 331 677 q 331 664 299 547 q 277 463 277 440 q 277 431 280 431 q 292 431 396 552 q 499 672 500 673 q 533 695 622 695 q 638 695 638 690 q 638 682 596 640 q 553 599 506 544 q 389 407 389 380 q 389 365 458 197 q 527 29 527 13 q 527 0 502 0 z"},"R":{"x_min":0,"x_max":620,"ha":620,"o":"m 251 402 l 251 397 q 251 391 265 391 l 268 391 l 271 391 l 277 391 q 354 391 406 424 q 430 439 445 467 q 459 494 459 521 q 459 577 396 578 l 363 578 q 307 578 296 562 q 285 545 277 510 q 270 474 260 445 q 251 416 251 402 z m 418 305 q 418 300 431 268 q 443 236 478 129 q 512 22 512 10 q 512 -1 428 -1 q 398 -1 388 23 q 374 55 354 130 q 333 205 315 240 q 297 276 269 276 q 241 276 235 259 q 231 250 229 216 q 214 62 192 21 q 180 -1 141 -1 l 117 -1 q 81 -1 81 9 q 81 16 87 41 q 93 65 96 90 q 100 114 104 143 l 113 199 q 126 282 134 342 q 141 401 154 449 q 166 498 183 578 q 200 658 205 668 q 221 702 373 702 l 385 702 l 397 701 q 480 701 524 665 q 568 628 568 560 l 568 545 q 568 471 531 411 q 510 376 464 342 q 418 307 418 305 z"},"T":{"x_min":0,"x_max":538,"ha":538,"o":"m 187 1 l 177 1 q 169 1 169 12 q 169 22 180 62 l 197 128 q 198 131 202 152 l 208 188 q 212 213 240 362 q 267 511 267 532 q 267 572 178 579 q 132 583 132 603 q 132 673 169 689 q 199 702 397 702 l 519 703 l 529 703 q 573 703 573 680 q 573 671 562 641 q 550 610 541 603 q 532 596 466 585 q 400 575 389 554 q 388 551 349 309 q 310 67 297 31 q 286 1 187 1 z"},"P":{"x_min":0,"x_max":583,"ha":583,"o":"m 258 373 l 271 373 q 354 373 389 405 q 425 437 438 460 q 451 484 451 518 l 451 521 q 451 547 436 564 q 421 581 392 581 l 372 581 l 368 580 l 353 579 l 335 578 q 307 578 299 562 q 286 539 277 497 q 268 455 258 419 q 248 383 248 379 q 248 373 258 373 z m 78 0 l 59 0 q 42 0 42 8 q 42 22 101 304 q 160 585 190 644 q 202 666 246 672 q 356 689 432 689 l 442 689 q 509 689 547 656 q 585 622 585 560 l 585 550 q 585 451 508 368 q 467 325 405 299 q 371 285 301 274 q 232 263 222 253 q 211 243 190 137 q 168 31 166 26 q 151 0 78 0 z"},"|":{"x_min":0,"x_max":385,"ha":385,"o":"m 222 -225 l 180 -225 q 153 -225 153 -207 l 153 -174 l 163 169 l 163 191 l 164 202 l 164 234 l 166 300 l 167 354 l 168 376 l 168 387 l 169 420 l 171 486 l 172 542 l 173 564 l 173 575 l 174 608 l 176 675 l 177 731 q 177 763 185 768 q 193 772 225 772 l 257 772 q 283 772 283 754 l 283 721 l 282 699 l 272 346 l 272 324 l 271 313 l 271 281 l 269 215 l 268 160 l 267 138 l 267 127 l 266 94 l 264 28 l 263 -27 l 262 -50 l 262 -61 l 261 -94 l 259 -172 q 259 -209 255 -217 q 250 -225 222 -225 z"},"t":{"x_min":0,"x_max":366,"ha":366,"o":"m 205 -3 l 187 -3 q 147 -3 120 34 q 94 71 94 125 q 94 125 129 350 q 129 380 121 389 q 113 398 100 404 q 87 410 87 420 q 87 466 107 488 q 113 495 137 501 q 161 507 166 519 q 167 523 169 536 l 173 565 q 180 604 192 620 q 211 645 267 645 q 294 645 294 612 l 288 562 q 288 536 315 516 q 356 486 356 479 q 356 445 344 432 q 332 419 300 404 q 269 390 259 368 q 217 273 217 167 q 217 134 251 110 q 285 85 285 64 q 285 18 270 7 q 255 -3 205 -3 z"},"M":{"x_min":0,"x_max":816,"ha":816,"o":"m 656 480 q 646 480 569 333 q 553 301 509 216 l 485 170 q 467 133 462 125 l 451 103 q 423 56 382 56 q 341 56 333 88 l 327 139 q 312 240 294 358 q 276 477 261 477 q 247 477 207 305 q 167 133 148 95 q 129 57 105 42 q 82 26 69 26 q 38 26 38 61 l 38 77 q 38 89 63 169 q 88 249 132 427 q 175 605 183 628 q 201 683 238 683 q 292 683 315 667 q 337 651 350 617 q 362 583 383 431 q 405 280 409 266 l 415 249 q 422 249 514 429 q 605 609 628 636 q 669 685 741 685 l 743 685 q 791 685 791 664 l 791 642 q 791 629 768 448 q 745 267 743 186 q 742 104 736 77 q 731 51 716 38 q 700 24 685 24 q 653 24 637 58 q 627 81 627 112 q 627 143 645 286 q 663 429 663 454 q 663 480 656 480 z"},"g":{"x_min":0,"x_max":562,"ha":562,"o":"m 376 337 l 376 360 q 376 381 368 389 q 351 407 327 407 l 316 407 q 271 407 231 343 q 190 280 190 199 l 190 194 q 190 160 203 138 q 216 116 243 116 l 246 116 q 293 116 335 181 q 376 246 376 337 z m 517 477 q 517 462 490 333 q 463 203 441 62 q 419 -80 417 -84 q 391 -139 331 -173 q 271 -207 212 -207 l 182 -207 q 120 -207 70 -178 q 21 -149 21 -117 q 21 -69 48 -69 q 83 -69 130 -89 q 177 -108 221 -108 q 265 -108 302 -62 q 340 -15 340 33 q 340 40 334 40 q 333 40 314 29 q 294 19 277 11 q 261 4 229 4 q 165 4 120 58 q 76 111 76 202 q 76 257 95 319 q 113 381 147 427 q 181 473 219 490 q 258 506 312 506 q 327 506 356 497 l 366 494 l 376 489 q 395 482 399 482 q 403 482 421 492 q 438 503 456 503 q 517 503 517 477 z"},"j":{"x_min":0,"x_max":296,"ha":296,"o":"m 205 500 l 229 500 q 250 500 250 456 l 251 441 q 251 417 208 186 q 166 -45 155 -74 q 131 -140 91 -175 q 51 -210 0 -210 l -18 -210 q -66 -210 -66 -193 q -66 -159 -43 -124 q -35 -111 -13 -102 q 9 -92 24 -77 q 40 -62 51 -29 q 62 5 91 168 q 121 332 121 402 q 121 473 135 487 q 148 500 205 500 z m 310 677 l 309 666 q 309 633 281 601 q 268 586 233 586 l 226 584 l 213 583 l 198 583 q 157 583 157 611 l 157 616 l 157 618 l 157 621 q 157 668 184 695 q 201 711 232 711 l 242 713 l 257 714 l 267 714 q 273 713 281 713 q 310 713 310 692 l 311 688 l 311 680 z"},"i":{"x_min":0,"x_max":291,"ha":291,"o":"m 179 499 l 224 499 q 252 499 252 488 l 252 483 q 252 465 229 343 q 207 221 202 158 q 197 94 185 52 q 173 9 163 3 q 153 -2 127 -2 l 87 -2 q 77 -1 64 -1 q 52 -1 52 6 l 52 11 q 52 37 67 105 l 89 200 q 117 348 117 407 q 117 466 131 486 q 141 499 179 499 z m 262 712 q 304 712 304 685 l 304 680 l 303 678 l 303 676 q 303 628 276 601 q 258 583 221 583 l 208 582 l 189 582 q 182 583 178 583 q 151 583 151 602 l 150 607 l 150 619 q 150 661 176 691 q 192 710 230 710 q 235 711 237 711 l 247 712 z"},"y":{"x_min":0,"x_max":512,"ha":512,"o":"m 2 -189 q 2 -161 22 -134 q 23 -132 80 -96 q 163 -42 163 69 q 163 106 133 277 q 103 448 103 458 q 103 481 120 490 q 137 499 166 499 l 177 499 q 215 499 224 458 q 224 458 236 373 q 249 288 255 237 q 261 186 263 186 q 271 186 323 307 q 375 429 393 456 q 411 483 430 491 q 449 499 492 499 q 511 499 511 483 q 511 479 491 445 q 471 412 457 382 q 292 16 239 -65 q 187 -146 137 -185 q 103 -211 52 -211 q 2 -211 2 -189 z"},"@":{"x_min":0,"x_max":830,"ha":830,"o":"m 340 238 l 340 220 q 340 193 353 179 q 367 166 380 166 l 383 166 l 386 167 q 428 167 469 233 q 509 299 509 371 l 509 380 q 509 420 474 420 l 461 420 q 424 420 382 364 q 340 307 340 238 z m 540 137 l 507 153 q 500 153 460 136 q 421 119 394 119 q 330 119 296 149 q 251 188 251 258 q 251 328 299 382 q 324 411 359 427 q 394 444 429 444 l 455 443 l 500 433 l 517 438 l 536 445 q 548 449 576 449 q 604 449 604 409 q 604 398 594 329 q 584 260 584 232 q 584 204 616 204 l 634 212 q 664 230 688 279 q 712 327 712 379 q 712 528 585 590 q 541 612 472 612 q 341 612 249 520 q 196 467 168 399 q 140 331 140 263 q 140 131 217 51 q 254 14 309 -6 q 364 -25 416 -25 q 468 -25 497 -20 q 526 -14 561 -4 l 603 8 q 633 8 633 -25 q 633 -43 557 -62 q 480 -82 408 -82 q 252 -82 160 13 q 68 108 68 264 q 68 333 97 411 q 125 490 185 555 q 245 621 321 653 q 396 685 466 685 l 496 685 q 555 685 610 663 q 666 642 707 603 q 790 523 790 401 q 790 346 771 288 q 737 191 666 149 q 630 127 596 127 q 562 127 540 137 z"},".":{"x_min":0,"x_max":302,"ha":302,"o":"m 83 1 q 55 1 55 19 l 54 33 l 54 40 l 54 42 l 54 48 q 55 53 55 56 q 55 93 88 131 q 105 151 159 151 l 167 151 q 213 151 213 125 l 213 105 q 213 63 181 21 q 166 1 127 1 q 123 0 120 0 l 109 0 l 98 0 l 96 0 l 90 0 q 85 1 83 1 z"},"p":{"x_min":0,"x_max":565,"ha":565,"o":"m 209 162 l 209 143 q 209 123 222 110 q 234 98 257 98 l 260 98 q 307 98 343 153 q 389 226 389 291 l 391 304 l 391 321 l 391 325 q 391 358 378 380 q 365 401 343 401 l 333 401 q 315 401 290 383 q 266 364 248 327 q 209 245 209 162 z m 519 330 q 519 284 493 216 q 468 147 430 102 q 355 9 258 9 q 258 9 257 9 q 242 9 208 17 q 173 25 168 25 q 156 25 138 -67 q 121 -160 112 -181 q 99 -210 73 -210 l 64 -210 q 4 -210 4 -190 l 4 -180 q 4 -115 50 66 q 142 433 143 436 q 160 481 234 481 q 251 481 256 469 q 257 465 259 456 q 260 446 262 446 q 267 446 290 466 q 313 485 319 489 q 352 509 391 509 l 401 509 q 456 509 487 460 q 519 410 519 330 z"},"X":{"x_min":0,"x_max":612,"ha":612,"o":"m 271 701 q 294 701 309 671 q 319 652 341 572 q 364 491 368 491 q 373 491 432 578 q 491 666 503 676 q 531 701 616 701 q 636 701 636 697 q 636 690 595 644 q 554 598 513 535 q 412 383 412 358 q 412 348 463 199 q 514 51 514 23 q 514 3 417 3 q 385 3 374 21 q 363 38 335 134 q 308 229 302 229 q 298 229 231 131 q 164 33 158 28 q 125 1 33 1 l 23 3 q 23 13 64 58 q 104 103 144 163 q 264 348 264 355 l 160 678 q 160 701 271 701 z"},"*":{"x_min":0,"x_max":468,"ha":468,"o":"m 228 381 q 210 381 205 395 q 204 399 164 412 q 151 416 151 435 l 151 441 q 151 459 165 472 q 178 484 181 491 q 185 498 185 515 q 185 517 176 522 q 155 538 155 579 q 155 593 167 604 q 179 615 189 615 q 200 615 229 602 q 258 588 265 588 q 269 588 276 629 q 283 669 295 683 q 308 697 343 697 l 351 697 q 364 697 364 675 q 364 652 354 620 q 345 588 345 585 q 345 581 349 581 q 353 581 369 590 l 383 598 q 413 613 426 613 q 460 613 460 590 q 460 583 447 559 q 434 535 414 527 q 376 511 376 494 q 376 490 381 482 q 385 473 389 464 q 392 456 392 429 q 392 403 343 403 q 330 405 325 405 q 320 405 314 401 q 308 398 300 398 l 287 394 l 263 396 q 258 396 244 388 q 230 381 228 381 z"},"Y":{"x_min":0,"x_max":588,"ha":588,"o":"m 623 698 q 623 689 604 665 l 588 645 q 565 618 561 612 q 557 605 476 471 q 396 337 383 311 q 370 285 350 168 q 330 52 324 30 q 316 0 285 0 l 220 0 q 204 0 204 15 q 204 22 226 140 q 248 258 248 288 q 248 319 197 488 q 146 658 146 672 l 146 682 q 146 703 228 703 q 262 703 279 666 q 295 628 317 532 q 339 436 345 436 q 351 436 414 544 q 476 652 494 670 q 526 702 608 702 q 623 702 623 698 z"},"c":{"x_min":0,"x_max":475,"ha":475,"o":"m 252 5 q 212 5 172 20 q 56 62 55 200 q 55 202 55 203 q 55 256 74 312 q 114 428 220 472 q 272 494 339 494 l 351 494 q 401 494 436 482 q 471 470 471 450 q 471 420 448 397 q 436 384 407 384 q 402 384 378 393 q 354 402 326 402 q 260 402 216 347 q 172 292 172 224 q 172 157 199 129 q 225 102 271 102 q 295 102 328 113 q 361 123 381 123 q 410 123 410 83 q 410 43 388 29 q 350 5 274 5 z"},"!":{"x_min":0,"x_max":327,"ha":327,"o":"m 104 -3 q 62 -3 62 22 l 62 37 q 62 82 96 121 q 113 141 165 141 l 175 141 q 182 140 189 140 q 220 140 220 111 l 220 106 l 218 86 q 218 48 186 16 q 168 -1 135 -1 q 130 -2 127 -2 l 117 -3 z m 246 707 l 283 707 q 313 707 313 694 l 313 689 q 313 685 274 492 q 236 300 220 246 q 210 210 162 210 l 151 210 q 122 210 122 225 l 122 231 l 122 236 q 122 259 155 461 q 187 664 189 674 q 198 707 246 707 z"},"/":{"x_min":0,"x_max":433,"ha":433,"o":"m 486 725 q 486 724 473 701 l 458 675 l 397 558 q 394 552 388 540 l 359 485 q 350 467 322 411 q 294 355 258 287 q 222 218 162 98 q 102 -23 78 -64 q 63 -87 31 -87 l 22 -87 q -21 -87 -21 -78 q -21 -76 -3 -46 q 14 -16 108 167 q 202 351 282 511 q 362 671 387 710 q 401 734 444 734 q 486 734 486 725 z"},"[":{"x_min":0,"x_max":362,"ha":362,"o":"m 121 -167 q 71 -167 56 -162 q 41 -156 41 -140 l 41 -119 q 41 -83 108 290 q 175 664 184 687 q 192 709 212 716 q 243 727 341 727 l 373 727 q 401 727 401 715 q 401 670 370 649 q 361 643 327 641 q 293 640 281 632 q 269 625 262 601 q 255 578 185 178 l 176 128 q 172 108 171 104 l 167 79 q 147 -32 147 -33 q 147 -57 157 -65 q 166 -74 193 -77 q 221 -81 225 -83 q 242 -93 242 -127 q 242 -161 226 -166 q 225 -167 164 -167 l 132 -167 z"},"6":{"x_min":0,"x_max":569,"ha":569,"o":"m 265 98 l 271 98 l 274 99 q 315 99 351 150 q 386 201 386 263 l 386 267 q 386 301 371 323 q 355 346 328 346 l 318 346 q 279 346 243 302 q 208 259 208 195 l 208 176 q 208 145 224 122 q 241 98 265 98 z m 290 431 q 332 436 348 436 q 363 436 396 420 q 429 405 453 374 q 496 319 496 231 q 495 184 480 138 q 466 92 440 60 q 384 -10 294 -10 q 203 -10 146 63 q 89 136 89 256 l 89 280 q 89 428 193 554 q 242 614 305 647 q 367 681 425 681 l 437 681 q 481 681 511 668 q 531 661 531 639 q 531 617 508 608 q 506 608 441 594 q 377 580 344 559 q 311 539 288 509 q 265 479 265 462 q 265 431 290 431 z"},"r":{"x_min":0,"x_max":395,"ha":395,"o":"m 154 23 q 138 0 58 0 l 50 0 q 37 0 37 7 l 37 14 q 37 16 53 75 q 69 134 94 280 q 118 426 128 457 q 138 488 186 488 q 234 488 251 480 q 262 476 262 445 q 262 439 266 439 q 270 439 285 455 q 301 471 308 476 q 339 501 368 501 l 374 501 q 415 501 415 478 l 415 471 q 415 429 390 395 q 381 382 337 382 q 294 382 271 369 q 249 355 229 318 q 208 280 185 157 q 162 35 154 23 z"},"2":{"x_min":0,"x_max":565,"ha":565,"o":"m 417 499 q 417 579 337 579 q 303 579 251 545 q 199 512 170 512 q 141 512 134 522 q 126 532 126 557 q 126 599 195 638 q 282 688 353 688 l 369 688 q 445 688 492 642 q 540 597 540 520 q 540 442 474 357 q 439 314 340 229 q 240 143 240 130 q 240 112 331 112 q 421 112 452 97 q 471 87 471 55 q 471 23 458 12 q 445 0 415 0 l 389 0 q 380 0 348 3 l 320 6 q 282 10 186 10 q 89 10 70 15 q 52 21 52 42 q 52 81 110 145 q 136 173 235 259 q 334 344 376 398 q 417 452 417 499 z"},"{":{"x_min":0,"x_max":387,"ha":387,"o":"m 253 -173 l 230 -173 q 167 -173 135 -138 q 103 -103 103 -37 q 103 -20 117 54 q 131 128 131 165 q 131 202 106 221 q 63 254 63 263 l 63 274 q 63 315 97 327 q 120 334 129 340 q 152 354 165 381 q 178 409 194 512 q 210 615 235 654 q 260 692 302 711 q 343 731 378 731 l 412 731 q 428 731 428 718 q 428 683 405 657 q 401 653 365 637 q 330 622 315 596 q 301 570 290 484 q 279 397 264 366 q 250 334 232 320 q 215 305 197 294 q 178 284 178 280 l 182 274 l 189 268 l 197 261 q 233 224 233 170 q 233 139 220 78 q 208 17 208 -16 q 208 -49 229 -67 q 232 -69 254 -81 q 275 -93 279 -100 q 282 -106 282 -132 q 282 -173 253 -173 z"},"9":{"x_min":0,"x_max":569,"ha":569,"o":"m 294 346 l 301 346 q 343 346 377 388 q 412 430 412 493 l 412 515 q 412 545 396 569 q 379 592 354 592 l 345 592 q 308 592 271 544 q 235 496 235 436 l 235 417 q 235 389 252 368 q 269 346 294 346 z m 354 238 q 354 256 333 256 q 332 256 331 256 q 312 255 293 255 q 288 255 283 255 q 259 255 226 270 q 193 285 169 315 q 125 370 125 464 q 125 558 180 630 q 206 664 242 682 q 277 700 312 700 l 335 700 q 374 700 412 681 q 450 661 479 623 q 531 552 531 422 l 531 410 q 531 257 418 126 q 368 69 306 39 q 244 8 186 8 l 174 8 q 123 8 102 23 q 90 32 90 54 l 90 61 q 90 73 168 91 q 247 109 281 133 q 315 156 335 185 q 354 214 354 238 z"}," ":{"x_min":0,"x_max":297,"ha":297,"o":""},"I":{"x_min":0,"x_max":318,"ha":318,"o":"m 321 692 l 321 679 q 321 641 299 578 q 276 515 260 427 q 220 207 220 162 q 220 76 199 31 q 185 0 151 0 l 72 0 q 53 0 53 17 l 53 23 l 53 30 q 53 68 75 125 q 97 182 114 275 q 155 496 155 542 q 155 630 176 672 q 191 703 231 703 l 302 703 q 321 703 321 692 z"},"H":{"x_min":0,"x_max":675,"ha":675,"o":"m 690 670 q 690 634 678 583 q 665 532 650 480 q 636 429 630 398 q 581 114 561 64 q 548 35 495 35 q 442 35 433 44 q 423 53 423 78 q 423 104 440 198 q 458 292 458 297 q 458 322 441 330 q 426 337 352 337 q 347 337 342 337 q 259 337 232 313 q 219 302 198 183 q 178 63 165 41 q 146 9 61 9 q 40 9 40 18 l 40 30 q 40 47 59 115 q 77 182 82 204 q 87 226 98 285 q 108 345 128 452 q 147 560 171 630 q 180 659 196 665 q 212 671 250 671 q 288 671 299 665 q 311 659 311 635 q 311 611 294 523 q 278 436 278 419 q 278 402 301 397 q 323 393 401 393 q 479 393 504 415 q 517 425 534 527 q 552 629 563 652 q 580 686 663 686 q 690 686 690 670 z"},"4":{"x_min":0,"x_max":570,"ha":570,"o":"m 289 29 q 289 33 295 57 q 301 81 301 118 q 301 136 287 139 q 274 142 194 142 q 114 142 85 149 q 66 154 66 179 q 66 219 92 260 q 234 479 382 652 q 406 681 438 691 q 470 701 514 701 q 535 701 535 679 q 535 670 496 510 q 458 350 458 307 q 458 293 481 282 q 504 271 504 247 q 504 207 486 182 q 478 169 448 162 q 417 154 410 135 q 405 123 402 74 q 398 25 392 17 q 385 8 337 8 q 289 8 289 29 z m 382 527 q 381 527 363 502 q 346 477 335 463 q 327 451 295 406 q 264 362 241 337 q 218 312 198 292 q 178 272 178 270 q 178 267 183 267 l 205 267 l 208 268 l 230 268 l 256 270 l 279 271 q 317 271 328 299 q 329 300 336 332 l 382 523 z"},"~":{"x_min":0,"x_max":596,"ha":596,"o":"m 211 396 l 224 396 q 260 396 330 355 q 400 313 427 313 q 453 313 481 350 q 509 387 535 387 q 566 387 566 347 q 566 308 519 263 q 471 217 420 217 l 407 217 q 373 217 302 259 q 232 300 206 300 q 180 300 150 263 q 121 226 96 226 q 64 226 64 257 l 64 263 q 64 302 118 355 q 159 396 211 396 z"},"D":{"x_min":0,"x_max":666,"ha":666,"o":"m 490 412 l 490 440 q 490 505 461 543 q 432 581 381 581 l 357 581 q 308 581 301 551 q 300 547 292 495 q 264 312 222 161 q 214 133 214 126 q 214 116 245 116 l 256 116 l 261 116 l 267 116 q 351 116 415 192 q 445 228 468 292 q 490 355 490 412 z m 208 -2 l 113 -2 q 57 -2 57 14 q 57 16 75 83 l 95 155 l 97 166 q 149 370 173 491 l 180 525 q 181 528 184 547 l 188 569 q 204 651 206 656 q 215 674 241 681 q 297 696 389 696 l 420 696 q 552 696 599 583 q 617 539 617 495 l 617 473 l 617 462 q 617 375 590 287 q 563 198 506 131 q 449 64 370 31 q 292 -2 208 -2 z"},"^":{"x_min":0,"x_max":589,"ha":589,"o":"m 129 315 l 104 315 q 80 315 80 321 q 80 344 270 664 q 289 695 324 695 l 333 695 q 379 695 397 666 q 406 651 443 561 q 480 472 515 405 q 549 337 549 326 q 549 315 522 315 l 514 315 l 505 315 q 458 315 436 344 q 426 357 381 469 q 336 580 327 580 q 318 580 265 474 q 212 368 198 350 q 171 315 129 315 z"},"0":{"x_min":0,"x_max":570,"ha":570,"o":"m 414 494 q 414 533 400 559 q 386 586 359 586 l 354 586 q 332 586 308 560 q 284 534 264 487 q 211 358 211 244 l 210 231 l 210 213 l 210 208 q 210 156 225 129 q 240 103 266 103 l 270 103 q 292 103 318 130 q 343 158 361 204 q 413 343 413 448 l 414 459 z m 129 43 q 92 94 92 188 l 92 208 l 92 218 q 92 302 121 403 q 174 594 277 666 q 326 701 381 701 l 390 701 q 419 701 448 687 q 476 673 494 647 q 533 593 533 503 l 533 482 l 532 472 q 532 390 506 294 q 451 95 347 22 q 298 -12 252 -12 q 206 -12 177 2 q 149 15 129 43 z"},"F":{"x_min":0,"x_max":518,"ha":518,"o":"m 521 694 q 552 694 559 689 q 565 684 565 661 q 565 615 545 603 q 524 591 391 591 q 315 591 298 572 q 288 560 274 511 q 260 463 260 458 q 260 441 334 436 q 408 430 430 419 q 453 409 453 384 q 453 358 443 334 q 433 311 424 307 q 415 303 374 299 q 255 287 230 260 q 205 233 197 147 q 188 61 183 44 q 172 7 147 7 l 135 7 q 59 7 59 34 q 59 74 98 215 q 136 355 148 411 q 159 467 165 555 q 170 642 177 655 q 183 667 199 672 q 269 692 372 692 l 426 693 l 494 694 z"},"`":{"x_min":0,"x_max":405,"ha":405,"o":"m 348 594 l 348 590 q 348 583 331 583 l 301 583 q 272 583 258 601 q 228 640 195 677 q 162 714 162 725 l 162 727 q 162 735 182 735 q 194 737 197 737 l 224 737 q 266 737 281 720 q 287 714 294 699 q 302 684 305 678 q 308 673 309 670 q 310 668 319 654 l 329 637 q 348 608 348 594 z"},"k":{"x_min":0,"x_max":531,"ha":531,"o":"m 363 6 q 336 6 326 19 q 316 32 284 122 q 252 212 234 212 q 213 212 196 122 q 178 32 169 22 q 155 4 113 4 q 72 4 72 24 l 73 36 l 80 62 q 84 83 88 124 q 112 362 177 628 q 192 690 196 697 q 205 714 235 714 l 261 714 q 298 714 298 687 q 298 669 264 532 q 230 396 230 360 q 230 347 240 347 q 254 347 317 419 q 381 492 398 502 q 416 513 463 513 q 511 513 511 497 q 511 485 405 361 q 383 336 376 327 q 353 294 353 269 q 353 245 397 139 q 441 33 441 25 q 441 6 363 6 z"},"u":{"x_min":0,"x_max":557,"ha":557,"o":"m 530 482 q 541 482 541 455 l 541 445 q 541 396 503 268 q 492 228 478 154 q 464 80 458 65 q 452 51 437 44 q 400 27 375 27 q 351 27 345 39 q 340 52 331 52 l 311 40 q 256 5 199 5 q 143 5 106 41 q 70 78 70 142 l 70 155 q 70 170 80 230 q 90 290 95 357 q 101 424 108 457 q 115 490 139 490 q 188 490 214 476 q 226 470 226 442 q 226 436 210 327 q 193 219 193 164 q 193 109 228 98 q 240 94 251 94 l 310 119 q 340 144 364 214 q 388 284 401 359 q 414 434 425 452 q 444 482 530 482 z"},"]":{"x_min":0,"x_max":361,"ha":361,"o":"m 45 -167 l 24 -167 q -10 -167 -10 -160 q -10 -115 17 -91 q 27 -82 58 -82 q 88 -82 105 -75 q 121 -68 126 -50 q 131 -32 145 47 q 159 126 165 153 q 170 180 187 276 q 204 372 224 472 q 244 573 244 597 q 244 621 233 627 q 222 634 196 637 q 170 641 159 648 q 149 655 149 682 q 149 709 155 718 q 160 727 189 727 l 274 727 q 324 727 337 719 q 350 712 350 695 l 350 685 q 350 644 283 272 q 216 -99 207 -125 q 198 -152 173 -158 q 130 -167 45 -167 z"},"U":{"x_min":0,"x_max":665,"ha":665,"o":"m 687 686 l 687 674 q 687 667 665 579 q 643 491 625 391 q 593 204 558 139 q 523 73 461 35 q 399 -4 315 -4 l 296 -4 q 196 -4 142 51 q 87 105 87 199 q 87 242 110 372 l 116 405 q 121 434 122 439 l 128 472 q 139 528 144 595 q 149 662 152 675 q 157 697 177 697 q 239 697 261 681 q 272 672 272 634 q 272 626 242 452 q 212 278 212 218 q 212 158 240 130 q 269 101 313 101 q 356 101 387 116 q 418 131 444 171 q 469 212 513 426 q 557 640 564 658 q 581 693 667 693 q 687 693 687 686 z"},"o":{"x_min":0,"x_max":558,"ha":558,"o":"m 192 189 l 192 181 q 192 141 208 118 q 225 96 252 96 l 256 96 q 303 96 343 163 q 383 229 383 310 l 383 322 q 383 359 367 381 q 351 403 324 403 l 320 403 q 302 403 278 389 q 255 375 233 339 q 192 270 192 189 z m 516 355 l 516 332 q 516 331 516 330 q 516 329 516 328 q 516 327 516 326 q 516 325 516 324 q 516 323 516 322 q 516 273 489 210 q 437 86 333 31 q 275 0 223 0 l 200 0 q 134 0 96 42 q 59 84 59 142 l 59 166 q 59 226 86 289 q 144 422 250 472 q 309 499 361 499 l 376 499 q 439 499 478 458 q 516 417 516 355 z"},"N":{"x_min":0,"x_max":690,"ha":690,"o":"m 552 19 q 508 19 485 28 q 462 38 445 65 q 429 92 344 294 q 259 495 247 495 l 231 404 q 177 92 164 59 q 151 26 129 17 q 107 8 60 8 q 39 8 39 19 q 39 29 56 96 q 72 163 102 321 q 131 479 144 554 q 157 629 162 648 q 170 683 188 683 q 246 683 271 672 q 297 660 311 640 q 325 619 408 419 q 491 218 503 218 q 505 218 535 406 q 564 594 579 632 q 593 670 611 682 q 630 694 677 694 l 694 694 q 708 694 708 677 q 708 641 588 65 q 578 19 552 19 z"},"+":{"x_min":0,"x_max":595,"ha":595,"o":"m 238 234 l 94 223 q 83 223 83 238 q 83 312 104 323 q 113 327 190 333 q 268 339 269 340 q 274 343 287 419 l 291 446 l 293 465 l 298 493 l 300 512 q 306 532 372 532 q 396 532 396 514 q 396 508 385 440 q 374 373 374 360 q 374 351 390 351 l 528 363 q 545 363 545 347 q 545 273 524 263 q 515 258 437 252 q 359 246 359 246 q 354 243 342 167 l 331 93 l 329 73 q 323 53 257 53 q 233 53 233 71 q 233 76 244 144 q 254 212 254 225 q 254 234 238 234 z"},"G":{"x_min":0,"x_max":687,"ha":687,"o":"m 419 290 q 419 361 581 361 q 622 361 638 353 q 654 345 654 312 q 654 280 623 194 q 591 107 565 81 q 539 54 459 30 q 379 6 330 6 l 310 6 q 256 6 210 28 q 72 95 72 275 q 72 358 100 438 q 128 519 182 577 q 290 696 462 696 q 556 696 610 675 q 665 654 665 623 l 665 609 q 665 587 649 570 q 633 552 599 552 q 592 552 537 570 q 482 588 431 588 q 329 588 262 501 q 196 415 196 283 q 196 206 233 157 q 271 108 338 108 q 404 108 438 139 q 472 171 472 224 q 472 232 446 255 q 419 278 419 290 z"},"q":{"x_min":0,"x_max":563,"ha":563,"o":"m 371 357 q 371 379 358 391 q 345 403 324 403 l 321 403 l 317 402 q 299 402 275 386 q 251 371 228 331 q 189 267 189 189 l 189 176 q 189 140 204 120 q 218 99 239 99 l 246 99 q 265 99 288 116 q 311 134 327 165 q 370 245 370 333 l 371 341 z m 518 480 l 518 472 q 518 471 505 418 q 451 189 429 -10 q 427 -28 422 -91 q 418 -155 411 -175 q 404 -195 357 -195 l 328 -195 q 299 -195 299 -176 q 299 -156 315 -71 q 332 15 332 18 q 332 22 329 22 q 326 22 314 13 q 278 -16 225 -16 q 156 -16 117 37 q 77 89 77 168 l 77 192 q 77 246 97 307 q 115 369 148 413 q 218 506 299 506 l 300 506 q 327 506 367 487 q 408 468 411 468 q 414 468 432 484 q 450 499 472 499 q 518 499 518 480 z"},"d":{"x_min":0,"x_max":565,"ha":565,"o":"m 373 333 l 373 354 q 373 372 360 384 q 348 396 331 396 l 317 396 q 302 396 278 383 q 254 369 231 330 q 190 262 190 190 l 190 169 q 190 133 206 114 q 221 95 243 95 l 246 95 q 264 95 287 111 q 311 126 324 151 q 371 239 371 313 q 373 330 373 333 z m 519 729 l 540 729 l 550 729 q 583 729 583 714 q 583 704 557 563 q 531 423 501 316 q 471 209 457 137 q 443 64 439 56 q 423 20 352 20 q 333 20 327 33 q 325 36 323 46 q 321 56 318 56 q 315 56 293 38 q 271 20 260 13 q 222 -12 176 -12 q 130 -12 97 31 q 63 73 63 155 l 63 178 q 63 228 94 294 q 152 417 231 458 q 273 479 325 479 l 374 475 q 418 475 427 490 q 432 498 449 594 q 467 689 469 696 q 480 729 519 729 z"},"1":{"x_min":0,"x_max":559,"ha":559,"o":"m 240 0 q 166 0 166 64 q 166 98 185 139 q 187 144 216 183 q 245 222 251 240 q 283 335 283 451 q 283 496 273 506 q 270 509 250 516 q 229 522 215 534 q 200 546 200 572 q 200 611 241 634 q 331 683 389 683 l 398 683 q 431 683 431 655 q 431 649 427 629 q 423 610 423 607 l 415 555 q 405 497 390 371 q 375 245 375 238 q 375 231 388 202 q 401 172 401 146 q 401 81 358 35 q 337 13 323 7 q 309 0 258 0 z"},"5":{"x_min":0,"x_max":564,"ha":564,"o":"m 555 670 q 555 657 541 625 q 527 594 511 585 q 496 577 408 577 q 321 577 295 559 q 282 549 270 510 q 257 472 257 463 q 257 440 295 440 q 332 440 378 422 q 505 374 505 242 q 505 188 482 140 q 459 92 426 61 q 393 29 346 10 q 300 -8 254 -8 l 238 -8 q 177 -8 108 16 q 39 40 39 59 q 39 87 60 108 q 81 129 105 129 q 112 129 156 111 q 200 93 249 93 q 297 93 341 133 q 385 173 385 228 q 385 337 258 337 l 257 337 l 169 331 q 139 331 139 375 q 139 418 167 522 q 195 625 211 646 q 227 667 253 674 q 278 680 339 680 q 400 680 452 685 q 504 690 530 690 q 555 690 555 670 z"}}}
